<?xml version="1.0" encoding="UTF-8"?>
<svg xmlns="http://www.w3.org/2000/svg" viewBox="0 0 1080 1080">
    <defs>
        <style>
            .cls-1 {
            fill: #8ed97d;
            stroke-width: 2.98px;
            }

            .cls-1, .cls-2, .cls-3, .cls-4, .cls-5, .cls-6, .cls-7, .cls-8, .cls-9, .cls-10 {
            fill-rule: evenodd;
            }

            .cls-1, .cls-7, .cls-8, .cls-11 {
            stroke: #3e7e42;
            }

            .cls-12, .cls-2, .cls-13, .cls-9 {
            fill: #fff;
            }

            .cls-14 {
            fill: #eaeadf;
            }

            .cls-15, .cls-3, .cls-6 {
            isolation: isolate;
            }

            .cls-3 {
            fill: url(#linear-gradient-3);
            opacity: .85;
            }

            .cls-4 {
            fill: #54de61;
            }

            .cls-5 {
            fill: #86d973;
            }

            .cls-6 {
            fill: url(#linear-gradient-2);
            opacity: .53;
            }

            .cls-7 {
            fill: #9af286;
            stroke-linecap: round;
            }

            .cls-7, .cls-8, .cls-11 {
            stroke-width: 2.98px;
            }

            .cls-16 {
            fill: #ea7d24;
            }

            .cls-8 {
            fill: url(#linear-gradient);
            }

            .cls-11, .cls-17 {
            fill: none;
            }

            .cls-18 {
            mix-blend-mode: multiply;
            opacity: .6;
            }

            .cls-18, .cls-19 {
            fill: #d1d3d4;
            }

            .cls-17, .cls-9 {
            stroke: #000;
            }

            .cls-20 {
            fill: #1e1e1e;
            }

            .cls-13 {
            font-family: MonsalGothic-Heavy, MonsalGothic-Heavy;
            font-size: 34.66px;
            }

            .cls-9 {
            stroke-width: 1.43px;
            }

            .cls-21 {
            fill: #e9e9ea;
            }
        </style>
        <linearGradient id="linear-gradient" x1="503.28" y1="408.1" x2="501.16" y2="624.66" gradientTransform="translate(0 1082) scale(1 -1)" gradientUnits="userSpaceOnUse">
            <stop offset="0" stop-color="#8de17a"/>
            <stop offset="1" stop-color="#a3f590"/>
        </linearGradient>
        <linearGradient id="linear-gradient-2" x1="368.25" y1="490.51" x2="472.51" y2="582.3" gradientTransform="translate(0 1082) scale(1 -1)" gradientUnits="userSpaceOnUse">
            <stop offset="0" stop-color="#71bc60"/>
            <stop offset="1" stop-color="#77ce64" stop-opacity=".42"/>
        </linearGradient>
        <linearGradient id="linear-gradient-3" x1="530.87" y1="660.77" x2="499.54" y2="561.28" gradientTransform="translate(0 1082) scale(1 -1)" gradientUnits="userSpaceOnUse">
            <stop offset="0" stop-color="#d2f1cb"/>
            <stop offset="1" stop-color="#cdf9c3" stop-opacity=".42"/>
        </linearGradient>
    </defs>
    <g class="cls-15">
        <g id="Layer_1" data-name="Layer 1">
            <g>
                <path class="cls-12" d="M440.55,682.4s35.84,6.9,46.74-8.73l-.92-6.57s-7.53-1.47-7.72-1.6-10.15-3.06-10.91-3.38-6.26-.89-7.85-1.02-3.7-.51-5.36,.32-4.47,1.66-5.17,2.17-3.32,3-3.32,3l-4.02,10.09-1.46,5.73Z"/>
                <g>
                    <g>
                        <g>
                            <path class="cls-12" d="M569.1,563.59c-.45,1.14-.81,15.46-11.5,19.94-10.7,4.48-96.47,14.36-96.47,14.36,0,0-114.05,9.7-159.26,14.58,0,0-9.27-8.1-9.19-19.47l89.94-8.11,122.15-12.63,64.33-8.67Z"/>
                            <path class="cls-19" d="M292.29,592.95c.02-.18,.17-.32,.35-.34l89.95-8.11,122.14-12.63,64.32-8.67c.13-.02,.27,.04,.36,.15,.08,.1,.1,.25,.06,.38-.05,.12-.12,.62-.2,1.16-.53,3.73-2.16,15.08-11.52,19-10.63,4.45-93.07,13.98-96.58,14.38-1.15,.1-114.57,9.75-159.26,14.58-.1,.01-.21-.02-.3-.09-.09-.08-9.4-8.35-9.33-19.76,0-.01,0-.03,0-.04Zm276.32-28.91l-63.79,8.6-122.16,12.63-89.6,8.08c.11,10.16,7.86,17.71,8.94,18.71,44.81-4.83,157.96-14.46,159.1-14.56,.85-.1,85.83-9.92,96.35-14.33,8.96-3.75,10.53-14.78,11.05-18.4,.04-.3,.08-.54,.11-.73Z"/>
                        </g>
                        <path class="cls-18" d="M307.28,611.89c-2.34-2.62-4.11-5.92-4.33-8.67-.12-1.41-.19-3.09,1.46-3.58,4.04-1.19,8.46-1.59,12.62-2.24,10.98-1.71,21.99-2.85,33.05-3.92,9.32-.9,18.66-2.4,28.04-1.76,.49,.04,.86,.63,.54,1.06-3.18,4.21-6.61,8.16-8.23,13.08,13.38-1.21,26.83-2.41,39.11-3.5-.43-4.22,.2-8.84,2.83-11.01,.8-.66,2.04-.66,3.01-.83,2.77-.49,5.54-.97,8.34-1.31,5.54-.67,11.11-1.09,16.68-1.45,12.24-.8,24.23-1.89,36.44-.13,7.97,1.15,16.79,1.56,24.08,5.33,3.84-.5,7.75-1.03,11.65-1.56-9.73-1.1-19.25-3.65-27.65-8.36-.72-.41-.11-1.38,.59-1.22,14.25,3.23,29.5,1.71,43.8-.43,13.8-2.07,26.87-6.79,39.04-13.5,.45-2.27,.59-3.95,.73-4.31l-64.33,8.67-122.15,12.63-89.94,8.11c-.08,11.36,9.19,19.47,9.19,19.47,1.71-.18,3.52-.38,5.42-.57Z"/>
                        <g>
                            <g>
                                <path class="cls-12" d="M391.05,604.03c5.96-.61,11.93-.97,17.86-1.84l-1.13-9.24s-25.16,2.6-28,2.85c-1.85,.16-6.04,4.39-7.37,9.84,6.24-.22,12.43-.97,18.64-1.61Z"/>
                                <path class="cls-19" d="M372.03,605.6s0-.03,0-.04c1.34-5.51,5.6-9.95,7.71-10.13,2.8-.25,27.74-2.82,27.99-2.85,.21-.02,.4,.13,.42,.34l1.13,9.24c.02,.21-.12,.4-.33,.43-3.99,.58-8.06,.95-12,1.3-1.96,.17-3.92,.35-5.88,.55-1.07,.11-2.14,.22-3.22,.34-5.05,.53-10.28,1.08-15.44,1.27-.12,0-.23-.05-.31-.14-.07-.08-.1-.19-.08-.29Zm35.41-12.22c-3.16,.33-25.01,2.58-27.63,2.81-1.59,.14-5.49,4.02-6.9,9.05,4.97-.2,10-.73,14.86-1.24,1.07-.12,2.15-.23,3.22-.34,1.96-.2,3.92-.37,5.89-.55,3.81-.34,7.74-.69,11.59-1.24l-1.04-8.49Z"/>
                            </g>
                            <path class="cls-18" d="M375.61,605.48c1.28-2.45,3.53-4.49,5.97-4.99,7.83-1.61,17.27-2.59,25.2-3.57,.08-.01,.34,2.33,.67,5.47,.49-.06,.98-.14,1.47-.21l-1.13-9.24s-25.16,2.6-28,2.85c-1.85,.16-6.04,4.39-7.37,9.84,1.07-.04,2.14-.09,3.2-.16Z"/>
                        </g>
                        <g>
                            <g>
                                <path class="cls-21" d="M383.88,593.33c-1.11-.06-1.96-1-1.9-2.11,.06-1.11,1-1.96,2.11-1.9,1.11,.06,1.96,1,1.9,2.11-.06,1.11-1,1.96-2.11,1.9Z"/>
                                <path class="cls-19" d="M381.6,591.04c.15-1.25,1.25-2.17,2.51-2.11,.64,.03,1.23,.32,1.65,.79,.43,.47,.65,1.09,.61,1.73-.06,1.33-1.21,2.34-2.52,2.27-1.32-.07-2.33-1.2-2.27-2.52,0-.05,0-.1,.01-.16Zm3.99,.47v-.11c.03-.43-.12-.85-.41-1.17-.29-.32-.69-.51-1.12-.53-.85-.04-1.6,.58-1.7,1.43v.11c-.06,.89,.63,1.66,1.53,1.7,.85,.05,1.6-.58,1.7-1.43Z"/>
                            </g>
                            <path class="cls-12" d="M384.62,591.19c-.25-.01-.45-.23-.44-.48,.01-.25,.23-.45,.48-.44,.25,.01,.45,.23,.44,.48-.01,.26-.23,.45-.48,.44Z"/>
                        </g>
                    </g>
                    <path id="path7191" class="cls-1" d="M296.2,549.09c-10.41,38.01-18.59,126.67-23.73,161.81-1.26-.42-2.62-.67-4.02-.61-6.42,.28-11.36,5.92-11.07,12.56,.29,6.64,5.71,11.77,12.13,11.48,4.44-.2,8.05-3.01,9.84-6.89,1.92,4.17,6.17,7.02,11.04,6.8,6.42-.28,11.42-5.75,11.14-12.17-.28-6.42-5.74-11.37-12.16-11.09-.02,0-.03,0-.05,0,.8-5.72,16.69-111.33,18.6-121.94,1.98-10.94,.82-85.75-11.72-39.97Z"/>
                    <path id="path7191-2" data-name="path7191" class="cls-1" d="M549.73,552.24c-2.83,39.31,6.35,127.87,8.14,163.34-1.31-.16-2.7-.15-4.06,.18-6.24,1.52-10,8.01-8.42,14.47,1.58,6.46,7.89,10.43,14.13,8.91,4.32-1.05,7.31-4.52,8.32-8.67,2.69,3.72,7.42,5.69,12.15,4.53,6.24-1.52,10.09-7.85,8.56-14.1-1.52-6.24-7.84-10.04-14.08-8.51-.02,0-.03,0-.05,.01-.33-5.77-5.25-112.45-5.43-123.23-.19-11.12-15.84-84.28-19.26-36.93Z"/>
                    <path class="cls-12" d="M440.55,682.4s35.84,6.9,46.74-8.73l-.92-6.57s-7.53-1.47-7.72-1.6-10.15-3.06-10.91-3.38-6.26-.89-7.85-1.02-3.7-.51-5.36,.32-4.47,1.66-5.17,2.17-3.32,3-3.32,3l-4.02,10.09-1.46,5.73Z"/>
                    <path id="path1306" class="cls-8" d="M511.42,411.25c-141.76-.51-257.02,58.71-272.53,106.86-12.87,39.97-30.62,153.38-37.74,190.54-1.32-.5-2.75-.84-4.25-.84-6.85,0-12.37,5.76-12.37,12.85s5.53,12.79,12.37,12.79c4.74,0,8.71-2.83,10.8-6.87,1.85,4.53,6.24,7.76,11.43,7.76,6.85,0,12.43-5.58,12.43-12.43s-5.58-12.37-12.43-12.37c-.02,0-.03,0-.05,0,1.12-6.06,18.05-101.67,25.71-118,5.03-10.73,213.46-20.52,216.67-10.67,4.63,14.22-7.5,104.67-10.26,140.84-.65-.09-1.26-.28-1.94-.26-6.84,.23-12.19,6.19-11.95,13.27,.23,7.08,5.95,12.6,12.79,12.37,4.73-.16,8.58-3.13,10.54-7.24,2,4.47,6.5,7.56,11.69,7.39,6.84-.23,12.23-6,12.01-12.85-.23-6.84-5.95-12.18-12.79-11.95-.59,.02-1.12,.21-1.68,.31,1.95-27.77,15.67-138.84,22.93-147.07,4.96-5.62,46.45-8.16,47.76,.83,1.15,7.89,25.55-13.71,27.82-17.05,2.62-3.85,15.73-25.7,17.04-41.11,.18-2.13,.16-5.96-.1-10.59,40.95,7.86,68.45,13.13,86.54,3.19,25.61-14.07,30.43-24.48,56.5-41.62,32.46-21.35,56.82-8.55,72.37-11.74,15.55-3.19,8.36-23.98,17.75-39.86,10.19-17.24-36.04-29.39-46.65-15.8-13.2,16.92-10.84,28.71-22.73,32.84-15.6,5.42-49.47,26.1-60.55,33.92-18.77,13.25-35.61,24.33-69.2,11.54-24.84-12.39-19.49-40.12-52.07-53.9-15.81-8.13-31.11-14.54-43.41-16.67-.64-.15-1.29-.24-1.94-.37-.76-.11-1.52-.19-2.25-.26-2.88-.47-5.13,2.32-8.25,2.2Z"/>
                    <path id="path9395" class="cls-2" d="M470.52,470.77c-8.59,29.75,14.87,39,14.87,39,0,0,9.25,5.95,16.53,7.93,7.27,1.98,36.61,10.41,39-22.15-11.16-3.14-70.4-24.79-70.4-24.79Z"/>
                    <path id="path10849" class="cls-17" d="M530.67,492.26l-6.28,27.76"/>
                    <path id="path10851" class="cls-17" d="M520.43,489.61l-6.94,30.41"/>
                    <path id="path10853" class="cls-17" d="M510.84,485.65l-6.94,31.4"/>
                    <path id="path10855" class="cls-17" d="M501.59,482.34l-6.94,31.4,6.94-31.4Z"/>
                    <path id="path10857" class="cls-17" d="M492,479.04l-6.61,30.74"/>
                    <path id="path10859" class="cls-17" d="M483.74,476.06l-6.28,26.77"/>
                    <path id="path10861" class="cls-17" d="M476.14,472.43l-4.96,20.49"/>
                    <path id="path10863" class="cls-17" d="M538.28,508.12c-21.15-.66-55.53-12.23-69.74-23.8"/>
                    <path id="path1334" class="cls-11" d="M585.61,507.85c-46.05-11.66-114.48-37.45-114.48-37.45,0,0-16.54,37.29,38.28,49.09,30.62,6.59,31.54-23.31,31.54-23.31"/>
                    <path id="path1319" class="cls-7" d="M809.29,435.7c15.93,2.06,20.65-15.86,15.15-24.36-5.01-7.75-22.21-16.17-26.59-5.49-3.28,8.01,5.39,12.55,12.63,11.81"/>
                    <path id="path1317" class="cls-7" d="M803.22,445.14c-6.5-3.4-15.55-2.68-11.49-13.87,3.01-8.27,12.9-1.92,26.17,7.15,13.26,9.07-.49,20.3-16.6,18.91"/>
                    <path id="path15231" class="cls-4" d="M400.94,466.21s33.07-5.39,30.28-24.27c-2.35-15.87-26.17-12.33-38.14-9.32,.76,9.62,2.04,14.91-8.96,19.54,11.06-.23,13.6,3.06,16.82,14.04Z"/>
                    <path id="path15959" class="cls-4" d="M404.58,503.81s33.51-.5,33.5-19.59c0-16.04-24.08-16.02-36.37-14.79-.65,9.63-.16,15.05-11.72,18.02,10.98,1.39,13.01,5.02,14.59,16.35Z"/>
                    <path id="path15961" class="cls-4" d="M404.85,542.86s33.44,2.1,34.92-16.93c1.24-15.99-22.77-17.84-35.12-17.56-1.4,9.55-1.32,15-13.08,17.06,10.84,2.24,12.58,6.01,13.27,17.43Z"/>
                    <path id="path15963" class="cls-4" d="M403.74,546.98c-2.02,9.44-2.29,14.91-14.16,16.2,9.06,2.5,11.4,5.94,11.9,13.84,10.86-.16,20.76-.15,29.36,.05,3.5-2.25,6.08-5.55,6.76-10.28,2.29-15.88-21.53-19.29-33.87-19.82Z"/>
                    <path id="path15965" class="cls-4" d="M386.44,426.7c-14.27,3.69-27.86,7.92-40.53,12.58,7.54,1.59,9.55,5.22,10.91,14.47,0,0,33.14-.96,33.14-18.93,0-3.51-1.39-6.11-3.51-8.13Z"/>
                    <path id="path15967" class="cls-4" d="M363.83,488.36s33.11-.85,33.16-18.82c.04-15.11-23.76-14.81-35.91-13.51-.67,9.08-.19,14.18-11.63,17.1,10.85,1.19,12.84,4.58,14.37,15.23Z"/>
                    <path id="path15971" class="cls-4" d="M366.93,525.61s33.11-.85,33.16-18.82c.04-15.11-23.76-14.81-35.91-13.51-.67,9.08-.19,14.18-11.63,17.1,10.85,1.19,12.84,4.58,14.37,15.23Z"/>
                    <path id="path15973" class="cls-4" d="M367.17,560.98s33.07,1.88,34.6-16.03c1.28-15.05-22.46-16.72-34.67-16.42-1.42,8.99-1.36,14.11-12.99,16.09,10.71,2.07,12.42,5.62,13.07,16.36Z"/>
                    <path id="path15975" class="cls-4" d="M364.52,564.23c-1.08,6.86-1.43,11.43-6.66,14.1,14.18-.65,27.86-1.08,40.85-1.31-2.66-11.59-23.07-13.06-34.19-12.79Z"/>
                    <path id="path15977" class="cls-4" d="M325.96,477.39s32.83-4.43,30.93-22.31c-1.6-15.02-24.06-9.65-35.99-7.04,.32,9.1,.18,11.62-10.87,15.77,10.91,0,13.26,3.16,15.94,13.58Z"/>
                    <path id="path15979" class="cls-4" d="M329.58,512.05s32.83-4.43,30.93-22.31c-1.6-15.02-25.23-12.15-37.16-9.54,.32,9.1,1.34,14.11-9.7,18.26,10.91,0,13.26,3.16,15.94,13.58Z"/>
                    <path id="path15981" class="cls-4" d="M328.9,545.01s33.12,.05,33.66-17.91c.45-15.1-23.35-15.46-35.52-14.49-.92,9.05-.58,14.17-12.09,16.78,10.81,1.48,12.71,4.93,13.95,15.61Z"/>
                    <path id="path15983" class="cls-4" d="M327.41,579.04s33.06,2.06,34.68-15.84c1.36-15.04-22.37-16.84-34.58-16.61-1.47,8.98-1.44,14.1-13.08,16.02,10.7,2.13,12.39,5.69,12.98,16.43Z"/>
                    <path id="path15987" class="cls-4" d="M294.16,501.12s30.58-6.82,27.31-23.62c-2.75-14.12-24.78-9.52-35.82-6.09,1.05,8.6,2.43,13.28-7.64,18.1,10.29-.87,12.76,1.94,16.15,11.61Z"/>
                    <path id="path15989" class="cls-4" d="M294.64,533.07s31.1-3.8,29.48-20.84c-1.36-14.32-23.74-11.89-35.05-9.55,.21,8.66,1.13,13.45-9.37,17.26,10.32,.14,12.51,3.18,14.94,13.13Z"/>
                    <path id="path15991" class="cls-4" d="M293.5,564.06s31.29-1.56,30.9-18.67c-.33-14.38-22.82-13.56-34.28-12.04-.42,8.66,.16,13.5-10.58,16.55,10.28,.88,12.25,4.06,13.96,14.17Z"/>
                    <path id="path15995" class="cls-4" d="M292.11,565.39c-1.24,8.58-1.13,13.46-12.11,15.47,3.22,.59,5.38,1.4,7.13,2.46,11.45-1.17,24.19-2.18,37.91-3.09,.53-13.91-21.51-15.25-32.93-14.84Z"/>
                    <path id="path15997" class="cls-4" d="M259.8,521.42s30.23-4.55,28.09-20.44c-1.8-13.36-23.56-10.37-34.53-7.82,.49,8.1,1.55,12.55-8.57,16.46,10.08-.2,12.32,2.57,15.02,11.81Z"/>
                    <path id="path15999" class="cls-4" d="M258.87,551.23s30.53-1.6,29.94-17.62c-.5-13.47-22.45-12.61-33.61-11.14-.3,8.11,.32,12.65-10.13,15.55,10.05,.78,12.01,3.76,13.8,13.21Z"/>
                    <path id="path16003" class="cls-4" d="M259.39,582.26s30.53-1.6,29.94-17.62c-.5-13.47-22.45-12.61-33.61-11.14-.3,8.11,.32,12.65-10.13,15.55,10.05,.78,12.01,3.76,13.8,13.21Z"/>
                    <path id="path16013" class="cls-4" d="M386.44,426.7c-14.27,3.69-27.86,7.92-40.53,12.58,7.54,1.59,9.55,5.22,10.91,14.47,0,0,33.14-.96,33.14-18.93,0-3.51-1.39-6.11-3.51-8.13Z"/>
                    <path id="path16018" class="cls-4" d="M292.11,565.39c-1.24,8.58-1.13,13.46-12.11,15.47,3.22,.59,5.38,1.4,7.13,2.46,11.45-1.17,24.19-2.18,37.91-3.09,.53-13.91-21.51-15.25-32.93-14.84Z"/>
                    <path id="path16023" class="cls-4" d="M364.52,564.23c-1.08,6.86-1.43,11.43-6.66,14.1,14.18-.65,27.86-1.08,40.85-1.31-2.66-11.59-23.07-13.06-34.19-12.79Z"/>
                    <path id="path16026" class="cls-11" d="M523.86,409.67c-.64-.15-1.29-.24-1.94-.37-.76-.11-1.52-.19-2.25-.26-2.88-.47-5.13,2.32-8.25,2.2-141.76-.51-257.02,58.71-272.53,106.86-12.87,39.97-30.62,153.38-37.74,190.54-1.32-.5-2.75-.84-4.25-.84-6.85,0-12.37,5.76-12.37,12.85s5.53,12.79,12.37,12.79c4.74,0,8.71-2.83,10.8-6.87,1.85,4.53,6.24,7.76,11.43,7.76,6.85,0,12.43-5.58,12.43-12.43s-5.58-12.37-12.43-12.37c-.02,0-.03,0-.05,0,1.12-6.06,18.05-101.67,25.71-118,5.03-10.73,213.46-20.52,216.67-10.67"/>
                    <path id="path7245" class="cls-6" d="M559.49,514.58c14.34,5.74,7.17,47.33-14.34,50.2-21.51,2.87-166.37,7.17-192.18,8.61-25.82,1.43-94.66,10.04-94.66,10.04,0,0-10.04-8.61-11.47-17.21-1.43-8.61,94.66-24.38,129.08-25.82,34.42-1.43,98.15-21.49,107.56-17.21,31.55,14.34,67.41-5.74,76.01-8.61Z"/>
                    <path id="path8715" class="cls-5" d="M817.92,419.48c-4.99,.18-7.76-.55-8.69,2.59-.92,3.14,2.4,9.06,4.44,9.61,2.03,.55,8.13-3.51,8.5-6.28,.37-2.77-1.29-4.81-4.25-5.91Z"/>
                    <path id="path8717" class="cls-5" d="M815.52,441.29c-3.7-2.22-11.09-3.14-12.2-1.66-1.11,1.48,4.81,2.4,3.51,5.36-1.29,2.96-3.88,2.59-4.81,3.88-.92,1.29-2.59,3.51-.74,4.81s14.97-1.11,16.08-2.96c1.11-1.85,4.62-6.28-1.85-9.43Z"/>
                    <g>
                        <path class="cls-16" d="M895.54,338.21c-1.02,12.54-7.35,122.44-8.84,149.23,0,.19-.6-.11-.77-.16-.83-.24-1.37-.13-2.46-.26l9.04-148.26c.02-.26-.19-.48-.44-.48v-.33c1.03,.01,1.99,.04,2.62,.09,.17,.01,.86,0,.85,.16Z"/>
                        <path class="cls-16" d="M892.07,337.95v.33s-.03,0-.04,0c-.88,.06-2.77,.18-4.78,.16l.03-.53c.73,.03,2.87,.02,4.78,.04Z"/>
                        <path class="cls-14" d="M891.4,339.39c.12-.02,.22,.07,.22,.19-.49,6.86-9.02,147.32-9.22,147.45-.15,.1-2.48-.16-4.36,.83l9.14-148.1c1.35-.28,3.17-.19,4.23-.37Z"/>
                        <path class="cls-16" d="M886.13,336.05c.05,0-9.66,151.75-9.62,153.39-.21,.17-92.66-9.61-92.66-9.61-.9-.08-1.25-.81-1.2-1.71,4.66-57.85,6.45-145.1,6.8-145.52,.1-.12,96.67,3.45,96.67,3.45Z"/>
                        <g>
                            <path class="cls-20" d="M896.48,336.56c-1.82-.01-7.91-.07-9.08-.13,0,0-.01-.89,.01-1.59,0-.23-.17-.42-.4-.44-6.77-.46-92.68-2.39-98.55-3.14-.14-.02-.26,.09-.26,.22-.09,5.5-2.54,91.81-7.07,148.07-.08,1.42,.47,1.49,1.89,1.61,0,0,87.27,9.01,94.36,9.58,.26,.02,.49-.17,.52-.43,.06-.58,.1-1.39,.1-1.39,1.9-.56,2.89-.92,4.68-.96,.03,0,4.61,.84,4.63,.84,.28,0,.35-.34,.39-1.04,1.47-26.42,8.71-142.07,9.25-150.7,.02-.28-.2-.51-.48-.52Zm-19.97,152.88c-.21,.17-92.66-9.61-92.66-9.61-.9-.08-1.25-.81-1.2-1.71,4.66-57.85,6.45-145.1,6.8-145.52,.1-.12,96.67,3.45,96.67,3.45,.05,0-9.66,151.75-9.62,153.39Zm5.89-2.41c-.09,.06-.98,0-2.08,.15,.19,0,.41-3.92,.74-8.75,.33-4.84,.63-8.76,.44-8.77-.19-.01-.53,3.9-.85,8.74-.33,4.83-.51,8.76-.33,8.78-.35,.05-.72,.12-1.1,.23,.13-1.05,.27-2.81,.45-4.97,.29-3.59,.58-6.5,.34-6.52-.24-.02-.58,2.88-.87,6.48-.2,2.43-.29,4.09-.27,5.09-.03,.02-.06,.04-.09,.07-.25,.09-.49,.19-.73,.32l9.14-148.1c.17-.04,.36-.07,.54-.09-.18,1.62-.24,5.78-.47,9.65-.33,5.44-.51,9.85-.33,9.86,.19,.01,.41-4.4,.74-9.83,.29-4.91,.57-8.98,.48-9.73,.39-.04,.79-.06,1.18-.08-.28,2.31-.64,9.53-1.18,16.18-.71,8.53-1.2,15.46-1.02,15.47,.19,.02,.72-6.91,1.43-15.44,.64-7.69,1.33-14.88,1.32-16.23,.19,0,.38-.02,.56-.03-.42,4.26-1.49,21.43-2.79,40.64-1.52,22.45-2.68,40.65-2.49,40.67,.19,.01,1.38-18.19,2.9-40.64,1.52-22.45,2.79-40.65,2.61-40.66,0,0-.01-.01-.02-.02,.28-.02,.54-.04,.76-.08,.12-.02,.22,.07,.22,.19-.49,6.86-9.02,147.32-9.22,147.45Zm4.31,.41c0,.19-.6-.11-.77-.16-.83-.24-1.37-.13-2.46-.26l9.04-148.26c.02-.26-.19-.48-.44-.48-.01,0-.02,0-.03,0-.88,.06-2.77,.18-4.78,.16l.03-.53c.73,.03,2.87,.02,4.78,.04,1.03,.01,1.99,.04,2.62,.09,.17,.01,.86,0,.85,.16-1.02,12.54-7.35,122.44-8.84,149.23Z"/>
                            <path class="cls-20" d="M885.94,388.11c-.19-.01-.92,9.99-1.74,22.32-.82,12.34-1.4,22.35-1.21,22.36,.19,.01,.81-9.99,1.63-22.33,.82-12.34,1.52-22.34,1.33-22.35Z"/>
                            <path class="cls-20" d="M884.32,446.12c-.19-.01-.84,8.31-1.54,18.58-.71,10.27-1.2,18.61-1.02,18.62,.19,.01,.72-8.32,1.43-18.59,.71-10.27,1.32-18.6,1.13-18.61Z"/>
                        </g>
                    </g>
                    <path id="path1315" class="cls-7" d="M761.51,419.89c5.44-9.67,7.04-19.44,12.94-21.46,5.69-1.96,19.33-11.92,24.22-9.29,4.9,2.63,8.81,12.04-6.93,19.61-7.51,3.61-7.83,13.13-13.93,16.91"/>
                    <path id="path1387" class="cls-3" d="M256.51,495.63c-19.02,32.19-11.7,30.73,4.39,26.34,16.09-4.39,131.68-29.26,147.77-24.87,16.09,4.39,39.5-1.46,43.89-19.02,4.39-17.56,5.59-26.71,24.84-19.25,31.73,12.3,92.2,23.64,115.61,28.03,23.41,4.39,49.75,24.87,87.79,2.93,38.04-21.95,68.92-40.35,83.4-51.21,2.93-2.19,12.5-23.75,15.65-31.16,1.58-3.7,14.91-10.87,14.17-12.76s-8.41,1.36-16.3,6.59c-8.15,5.4-13.36,31.13-23.61,35.51s-42.59,22.3-55.76,32.54c-13.17,10.24-48.28,30.73-71.69,19.02-23.41-11.7-32.19-33.65-51.21-46.82-19.02-13.17-100.95-39.5-198.98-7.32-98.03,32.19-102.42,43.89-119.97,61.45Z"/>
                    <text class="cls-13" transform="translate(807.21 381.72) rotate(4.38)"><tspan x="0" y="0">SLT</tspan></text>
                    <g>
                        <g>
                            <path class="cls-12" d="M475.99,401.25s-10.7-14.5-26.93-12.97c-16.22,1.53-85.81,43.36-85.81,43.36,0,0-4.06-2.93-5.43-.11,0,0-96.77,47.24-118.68,52.54,0,0-14.28,55.43,12.62,117.72,0,0,174.62-4,208.69-17.09,34.07-13.09-27.75-104.74-27.75-104.74l35.54-53.4,7.75-25.3Z"/>
                            <path class="cls-19" d="M238.62,560.29h0c-8.21-43.03,.06-76.03,.14-76.35,.04-.16,.16-.28,.3-.32,21.27-5.15,113.01-51.82,118.52-52.52,.34-.59,.81-.98,1.41-1.15,1.6-.47,3.63,.74,4.27,1.16,4.89-2.93,69.92-41.79,85.76-43.29,16.24-1.54,27.15,12.98,27.27,13.13,.09,.12,.12,.29,.07,.44l-7.74,25.31s-.03,.09-.06,.13l-35.54,53.4s-.07,.09-.11,.12c-.7,.47,61.39,91.83,27.67,104.78-33.7,12.95-208.07,16.94-208.73,17.11-.18,.05-.36-.06-.45-.24-5.74-13.29-10.04-27.32-12.78-41.7Zm.84-75.83c-.76,3.18-7.85,34.87-.07,75.64h0c2.71,14.19,6.94,28.04,12.58,41.17,4.93-1.24,175.86-4.52,208.34-17,33.18-12.74-30.43-102.95-27.89-104.65l35.46-53.27,7.65-24.98c-1.34-1.7-11.63-14.02-26.44-12.62-15.96,1.51-84.96,42.89-85.66,43.31-.12,.08-.28,.07-.4-.02-.02-.02-2.31-1.64-3.85-1.19-.45,.13-.79,.43-1.02,.91-.06,.13-.17,.22-.3,.23-1.2,.16-96.14,47.19-118.4,52.48Z"/>
                        </g>
                        <path class="cls-18" d="M303.64,556.67c13.3-.66,26.35-3.87,39.6-5.06-3.17-10.18-7.83-19.95-9.89-30.53-.95-4.85-1.48-9.73-1.9-14.67-.24-2.77-.44-5.55-.76-8.32-.64-5.5-1.34-5.15-5.78-3.93-.36,.1-.66-.04-.87-.26-9.52,2.57-19.28,3.31-28.94,5.16-5.4,1.04-11.89,1.82-15.01,7.75-2.29,4.35-3.21,9.43-3.29,14.47-.37,22.29,12.89,38.84,31.34,43.02-1.64-2-3.42-3.83-5.16-5.72-.63-.69-.18-1.87,.66-1.91Z"/>
                        <path class="cls-18" d="M361.4,430.65c-14.15,9.6-25.25,26.57-27.85,45.19,6.3-10.97,12.7-21.69,21.26-30.62,8.06-8.41,16.68-16.03,25.54-23.3-.57,.22-1.14,.44-1.7,.68-5.49,3.17-9.92,5.78-12.6,7.37-.6,.51-1.19,1.03-1.76,1.57-.31,.3-.67,.24-.93,.03-.07,.04-.11,.06-.11,.06,0,0-.83-.59-1.85-.99Z"/>
                        <g>
                            <g>
                                <path class="cls-12" d="M484.46,391.53s-29.16-6.49-33.18-2.81c-4.03,3.68-38.81,49.76-46.54,73.72l29.2,10.07-25.85,14.28-12.91,77.7,51.93-89.67,37.36-83.3Z"/>
                                <path class="cls-19" d="M394.38,564.87c-.07-.15-.09-.34-.07-.51l12.92-77.7c.04-.27,.21-.51,.45-.64l24.09-13.31-27.32-9.43c-.45-.15-.69-.65-.54-1.11,7.96-24.69,43.14-70.79,46.78-74.11,4.24-3.88,30.93,1.92,33.96,2.6,.25,.06,.47,.23,.59,.47,.1,.19,.12,.51,0,.76l-37.35,83.29-51.97,89.75c-.22,.37-.66,.53-1.05,.39-.23-.08-.41-.25-.5-.46Zm14.5-77.5l-12.05,72.53,49.53-85.53,36.86-82.21c-11.19-2.42-28.75-5.17-31.36-2.79-3.45,3.15-37.8,48.46-46.01,72.5l28.39,9.8c.33,.11,.56,.41,.58,.77,.03,.35-.15,.69-.45,.86l-25.48,14.07Z"/>
                            </g>
                            <path class="cls-18" d="M395.18,564.5l28.56-49.33c2.92-12.52,3.59-24.56,10.87-35.74,5.21-8.01,11.1-15.7,16.02-23.93-4.9,5.11-10.02,10.16-15.75,13.76-.84,.53-2.08-.04-2.24-1.01-2.41-14.64,2.28-31.04,6.37-45.08,3.69-12.66,8.63-24.89,16.26-35.51-1.88,.12-3.31,.45-4,1.07-4.03,3.68-38.81,49.76-46.54,73.72l29.2,10.07-25.85,14.28-12.91,77.7Z"/>
                        </g>
                        <g>
                            <g>
                                <path class="cls-12" d="M332.42,491.58l10.02,59.33-40.72,3.93s-9.52,1.29-18.28-16.46c-8.76-17.76,2.48-37.91,6.75-38.66,4.28-.75,42.23-8.13,42.23-8.13Z"/>
                                <path class="cls-19" d="M280.24,530.54c-1.96-10.29,1.17-20.32,4.75-26.29,1.8-2.98,3.7-4.91,5.12-5.15,4.22-.74,41.84-8.05,42.22-8.13,.3-.05,.54,.16,.63,.5l10.02,59.33c.03,.17,0,.36-.1,.5-.09,.14-.24,.23-.39,.25l-40.72,3.93c-.39,.05-9.97,1.13-18.81-16.78-1.26-2.56-2.17-5.3-2.72-8.14Zm51.74-38.23c-4.61,.9-37.75,7.34-41.71,8.04-.82,.14-2.46,1.44-4.37,4.62-3.45,5.75-6.47,15.41-4.58,25.31,.52,2.72,1.39,5.34,2.6,7.79,8.48,17.2,17.65,16.17,17.74,16.15l40.13-3.87-9.8-58.04Z"/>
                            </g>
                            <path class="cls-18" d="M332.42,491.58s-37.95,7.39-42.23,8.13c-4.27,.75-15.51,20.9-6.75,38.66,8.76,17.76,18.28,16.46,18.28,16.46l40.72-3.93-10.02-59.33Zm-32.73,56.49c-6.44-.77-12.29-7.64-14.92-17.05-2.37-8.49,2.45-19.99,8.85-22.12,11.69-3.89,25.93-6.67,37.85-9.32,.32-.07,5.48,35.66,6.62,42.21,.08,.47-.13,.9-.45,.98-5.92,1.55-32.73,5.92-37.96,5.29Z"/>
                        </g>
                        <g>
                            <g>
                                <path class="cls-12" d="M440.55,682.4c.14-1.33,.42-2.63,.83-3.88-.08,1.22-.17,2.38-.25,3.49,0,0,.01,0,.02,0,1.31-10.36,11.03-17.82,20.98-18.28,8.98-.41,18.16,3.41,24.68,9.49,.17,.14,.33,.29,.48,.44,.03-.24,.06-.46,.08-.7,.04-.28,.08-.56,.11-.84,.02-.2,.05-.4,.06-.6,.12-.95,.22-1.9,.33-2.86,.02-.18,.05-.38,.07-.57,.11-1.05,.24-2.1,.36-3.18,.11-.98,.22-1.98,.33-2.99,.02-.26,.05-.51,.07-.78h0c1.79-16.7,3.51-36.22,4.06-53.81,1.37-43.72-23.58-127.37-45.77-143.71-.33-.24-.65-.47-.98-.69-.16-.1-.33-.21-.49-.31-.82-.49-1.63-.9-2.44-1.2-23.04-8.49-40.82,10.16-40.82,10.16-3.88,15.2,24.42,46.01,35.79,82.24,8.85,28.21,4.74,98.73,2.48,128.58Z"/>
                                <path class="cls-19" d="M440.55,682.4c.14-1.33,.42-2.63,.83-3.88,2.25-31.28,5.74-97.73-2.79-124.91-5.27-16.79-14.06-32.23-21.81-45.85-8.09-14.22-15.08-26.49-14.25-34.5,.05-.48,.13-.96,.23-1.41,1.55-1.54,18.63-17.82,40.13-9.89,.72,.26,1.44,.62,2.18,1.06,9.92,5.83,21.53,26.88,31.54,57.4,10.18,31.01,16.3,65.13,15.63,86.94-.43,13.75-1.62,30.14-3.53,48.71-.19,1.86-.39,3.74-.6,5.65-.38,3.56-.79,7.17-1.22,10.81-.02,.24-.06,.47-.08,.71,.17,.14,.33,.29,.48,.44,.03-.23,.06-.46,.09-.7,.03-.28,.06-.56,.1-.84,.02-.2,.05-.4,.06-.6,.12-.95,.22-1.9,.33-2.86,.02-.18,.05-.38,.07-.57,.11-1.05,.24-2.1,.36-3.18,.11-.98,.22-1.98,.33-2.99,.03-.26,.05-.52,.08-.78,1.79-16.69,3.51-36.21,4.06-53.81,1.37-43.72-23.58-127.37-45.77-143.71-.33-.24-.65-.47-.98-.69-.16-.1-.33-.21-.49-.31-.82-.49-1.63-.9-2.44-1.2-23.04-8.49-40.82,10.16-40.82,10.16-3.88,15.2,24.42,46.01,35.79,82.24,8.85,28.21,4.74,98.73,2.48,128.58Z"/>
                            </g>
                            <path class="cls-18" d="M488.01,599.64c-1.49-16.4-3.84-32.66-7.28-48.61-2.92-13.57-6.86-26.79-10.32-40.18-2.88-11.15-6.19-23.1-11.74-33.2,18.4,30.16,35.24,93.55,34.11,129.68-.47,14.77-1.75,30.89-3.21,45.57,.57-17.85,.05-35.66-1.56-53.25Z"/>
                            <path class="cls-18" d="M440.55,682.4c.14-1.33,.42-2.63,.83-3.88-.08,1.22-.17,2.38-.25,3.49,0,0,.01,0,.02,0,1.31-10.36,11.03-17.82,20.98-18.28,8.98-.41,18.16,3.41,24.68,9.49,.17,.14,.33,.29,.48,.44,.03-.23,.06-.46,.09-.7,.03-.28,.06-.56,.1-.84,.02-.2,.05-.4,.06-.6,.12-.95,.22-1.9,.33-2.86,.02-.18,.05-.38,.07-.57,.11-1.05,.24-2.1,.36-3.18,.11-.98,.22-1.98,.33-2.99,.03-.26,.05-.52,.08-.78h0c-.19,.21-.39,.4-.6,.57-1.84,1.63-4.03,2.57-6.56,2.05-1.79-.36-3.41-1.5-4.94-2.4-2.95-1.73-5.56-2.76-8.95-3.46-5.92-1.23-13.41-1.59-18.4,3.27-.56,.54-1.45,.09-1.51-.58-1.62-18.77,1.1-37.79,.21-56.58-.28-5.92-1.24-13.36,.98-19.22,1.77-4.71,6.15-6.22,10.5-7.28-2.97-.74-6.04-1.08-9.22-.94-.88,.04-1.32-.75-.83-1.56,6.95-11.37,17.52-11.19,28.41-14.07-5.04-2.22-10.58-1.54-16.26-.95-4.35,.44-8.26,.06-12.49-.64-1.73-.28-2.11-1.36-2.75-2.91-2.19-5.24-3.56-10.64-5.39-16.05-3.97-11.71-8.36-23.24-14.37-33.89-4.72-8.36-9.36-15.9-10.81-25.85-.89-6.1,.07-14.35,6.49-17.59,6.34-3.2,13.28-2.43,19.64-.91,1.02,.25,2.1,.54,3.2,.87,.63,.18,1.28,.39,1.94,.6-.33-.24-.65-.47-.98-.69-.16-.1-.33-.21-.49-.31-.82-.49-1.63-.9-2.44-1.2-23.04-8.49-40.82,10.16-40.82,10.16-3.88,15.2,24.42,46.01,35.79,82.24,8.85,28.21,4.74,98.73,2.48,128.58Z"/>
                        </g>
                        <path class="cls-18" d="M348.04,452.54c2.65-3.77,5.44-7.41,8.55-10.79,7.19-7.8,15.32-13.2,23.67-19.11,.26-.18-.5-.66-.71-.55-9.14,4.82-17.21,10.71-24.59,18.59-6.4,6.83-12.9,15.38-17.24,24.29,3.27-4.32,6.69-8.5,10.32-12.43Z"/>
                    </g>
                    <g>
                        <path id="path7197" class="cls-9" d="M501.1,377.79c-17.19,.33-27.1,14.87-19.17,26.77,7.93,11.9,38.34,10.25,42.31-1.98,3.97-12.23-12.89-26.11-23.14-24.79Z"/>
                        <path id="path7933" class="cls-10" d="M505.66,397.58c9.48-1.91,7.41-7.84,3.69-12.49-3.73-4.65-12.57-1.91-12.39,3.63,.18,5.54,1.79,8.13,8.7,8.86Z"/>
                        <path id="path1323" class="cls-9" d="M555.98,413.74c3.64-17.79-6.07-25.41-21.85-26.68-15.78-1.27-35.21,6.35-27.92,19.06,7.28,12.7,38.85,30.49,49.78,7.62Z"/>
                        <path id="path7199" class="cls-9" d="M464.23,389.26c-14.74,8.84-16.1,26.39-3.3,32.76,12.8,6.37,38.35-10.2,35.71-22.78-2.65-12.58-24.18-16.23-32.41-9.98Z"/>
                        <path id="path7935" class="cls-10" d="M466.39,404.88c2.68,9.3,8.42,6.75,12.75,2.66,4.33-4.09,.88-12.69-4.63-12.05s-7.95,2.45-8.12,9.39Z"/>
                        <path id="path1321" class="cls-9" d="M513.37,408.8c-10.32-9.53-31.57-15.25-37.64-3.81-6.07,11.43-2.43,34.3,19.43,33.03s28.53-19.69,18.21-29.22Z"/>
                        <path id="path7195" class="cls-9" d="M523.9,404.23c-12.89,.99-21.15,15.87-11.57,22.48,9.59,6.61,29.42,6.61,31.07-5.95,1.65-12.56-8.92-16.86-19.5-16.53Z"/>
                        <path id="path7927" class="cls-10" d="M497.46,407.86c-9.59-1.32-9.59,4.96-7.6,10.58,1.98,5.62,11.24,5.95,12.89,.66,1.65-5.29,.99-8.26-5.29-11.24Z"/>
                        <path id="path7929" class="cls-10" d="M533.03,409.96c-7.42-.95-7.42,3.56-5.88,7.59,1.54,4.03,8.7,4.27,9.98,.47,1.28-3.8,.77-5.93-4.09-8.07Z"/>
                        <path id="path7931" class="cls-10" d="M539.1,393.33c-8.51,4.61-4.79,9.67,.13,13.02,4.92,3.36,12.58-1.85,10.78-7.09-1.8-5.24-4.09-7.25-10.91-5.93Z"/>
                    </g>
                    <g>
                        <g>
                            <g>
                                <path class="cls-12" d="M585.17,687.91c-.46-.06-.92-.12-1.38-.18-13.62-1.71-21.33-.19-33.09,.28-16.66-55.76-17.41-94.19-9.79-113.36,.09,.15,.18,.3,.28,.45,3.55,5.61,10.72,9.82,19.3,10.59,1.85,.17,3.67,.16,5.42,0,3.69-2.04,7.16-4.34,10-7.15,2.22-2.2,4.62-4.74,6.15-7.52,.26-.48,.51-.97,.71-1.46-.4,2.79-1.42,5.91-2.69,9.59,0,0-.01,.03-.01,.04-.13,.38-.26,.77-.4,1.16h-.01c-1.05,3.03-2.24,6.42-3.39,10.28-.16,.55-.33,1.1-.48,1.66-.33,1.12-.64,2.3-.94,3.52-.14,.57-.29,1.15-.43,1.75-.32,1.38-.63,2.81-.92,4.29-.11,.57-.22,1.15-.32,1.74-.13,.69-.25,1.39-.36,2.11-2.67,16.74,7.76,55.17,11.85,79.14,.11,.67,.22,1.34,.33,1.99,.06,.37,.12,.72,.17,1.08Z"/>
                                <path class="cls-19" d="M580.62,662.14c-4.35-20.8-9.28-44.38-7.36-56.38,1.68-10.49,4.46-18.45,6.68-24.85,.14-.39,.28-.78,.4-1.15-.21,.2-.43,.4-.67,.59,.14-.39,.28-.78,.4-1.16,0,0,.01-.03,.01-.04,1.27-3.68,2.29-6.8,2.69-9.59-.2,.49-.45,.98-.71,1.46-.58,2.79-1.69,5.94-2.96,9.63-.03,.07-.05,.14-.08,.21-.23,.68-.48,1.38-.72,2.1-2.08,6.01-4.42,13.33-5.92,22.65-1.94,12.13,3.01,35.78,7.38,56.64,1.67,7.97,3.25,15.57,4.39,22.12,.18,1.05,.35,2.07,.51,3.06-.31-.04-.62-.08-.92-.11-9.94-1.23-16.62-.76-24.29-.23-2.65,.19-5.4,.38-8.39,.51-.65-2.15-1.26-4.27-1.86-6.36-14.84-52.42-15.08-87.99-8-106.14-.1-.15-.19-.3-.28-.45-.1-.16-.19-.32-.27-.49-2.61,6.41-4.21,14.85-4.67,24.98-1,21.74,3.28,50.19,12.36,82.27,.62,2.19,1.27,4.43,1.94,6.69,.05,.18,.25,.3,.46,.29,3.16-.13,6.02-.32,8.79-.52,7.99-.55,14.9-1.04,25.59,.42,.13,.02,.27-.02,.36-.11,.11-.08,.14-.2,.13-.32-1.13-7.31-3.01-16.26-4.99-25.72Z"/>
                            </g>
                            <path class="cls-18" d="M585.17,687.91c-.46-.06-.92-.12-1.38-.18-.02-.13-.03-.27-.07-.41-.17-1.28-.38-2.56-.63-3.84-.87-4.49-2.11-8.94-3.24-13.38-1.85-7.27-2.97-14.64-4.41-21.96-.64-3.26-1.45-6.49-2.18-9.74-.49-2.17-.84-4.35-1.63-6.48-.43-1.13-1.19-2.83-2.74-3.04-2.19-.31-4.19,.56-6.21,1.17,1.61-2.19,4.42-3.62,6.72-5.19,.24-.16,.12-.47-.09-.61-4.42-3.01-10.35,.19-15.05,1.32,1.67-2.3,5.49-3.29,8.23-4.01,1.19-.31,2.41-.61,3.63-.8,1.42-.22,2.82-.19,4.15-.73,1.61-.66,.77-3.88,.68-5.04-.26-3.4,.12-6.81,.48-10.18,.84-7.79,3.45-14.78,6.87-21.85,.15-.33,.31-.65,.48-.99,.24-.49,.48-.99,.7-1.48,.21-.43,.4-.88,.6-1.31-.13,.38-.26,.77-.4,1.16h-.01c-1.05,3.03-2.24,6.42-3.39,10.28-.16,.55-.33,1.1-.48,1.66-.32,1.14-.64,2.3-.94,3.52-.14,.57-.29,1.15-.43,1.75-.32,1.38-.63,2.81-.92,4.29-.11,.57-.22,1.15-.32,1.74-.13,.69-.25,1.39-.36,2.11-2.67,16.74,7.76,55.17,11.85,79.14,.11,.67,.22,1.34,.33,1.99,.06,.37,.12,.72,.17,1.08Z"/>
                            <path class="cls-18" d="M585.17,687.91c-.46-.06-.92-.12-1.38-.18-13.62-1.71-21.33-.19-33.09,.28-16.66-55.76-17.41-94.19-9.79-113.36,.09,.15,.18,.3,.28,.45,3.55,5.61,10.72,9.82,19.3,10.59,1.85,.17,3.67,.16,5.42,0-4.37,2.44-9.05,4.51-13.38,6.67-.65,.32-.3,1.35,.46,1.28,5.89-.54,11.35-2.61,17.1-3.6-7.47,3.83-17.68,4.61-22.23,11.62-2.61,4.02-2.51,9.47-2.15,13.98,.46,5.95,1.96,11.83,2.56,17.77,.63,6.37,1.54,12.74,2.91,19.04,1.19,5.55,2.47,12.19,5.51,17.26,2.59,4.32,9.12,5.1,13.84,6.73,4.94,1.7,8.95,4.09,12.56,7.04,.35,.29,.7,.6,1.04,.9,.18,.15,.36,.3,.53,.46,.11,.67,.22,1.34,.33,1.99,.06,.37,.12,.72,.17,1.08Z"/>
                        </g>
                        <path class="cls-19" d="M582.77,569.57c-.4,2.79-1.42,5.91-2.69,9.59,0,0-.01,.03-.01,.04-.13,.38-.26,.77-.4,1.16h-.01c-.05,.05-.11,.11-.18,.15-.15,.13-.3,.25-.45,.37-3.43,2.63-8.01,4.38-13.11,4.82,3.69-2.04,7.16-4.34,10-7.15,2.22-2.2-.05-11.4,1.48-14.17,.26-.48,5.18,5.69,5.38,5.19Z"/>
                    </g>
                    <path class="cls-12" d="M579.02,580.87s10.37-14.39-3.16-31.87c0,0-2.19,7.29-6.14,11.5l.9,22.32s-20.13,2.43-29.98-8.67c0,0-5.07,12.93-4.67,24.98l33.75-10.17s9.02-3.93,9.3-8.09Z"/>
                    <path class="cls-12" d="M540.64,574.16s27.36-3.24,35.22-25.15l1.53,15.37-3.05,15.62-4.85,8.04-20.83,2.24-8.02-6.85v-9.27Z"/>
                    <path class="cls-12" d="M575.86,549s13.89-21.61,10.91-39.58c0,0,13.96,19.75-4.71,61.61l-11.16,14.66-16.64,4.01,21.59-40.7Z"/>
                </g>
            </g>
        </g>
    </g>
</svg>